<svg width="97" height="35" viewBox="0 0 97 35" fill="none" xmlns="http://www.w3.org/2000/svg">
    <path d="M28 28.5C25.2152 28.5 22.5445 27.3938 20.5754 25.4246C18.6062 23.4555 17.5 20.7848 17.5 18C17.5 15.2152 18.6062 12.5445 20.5754 10.5754C22.5445 8.60625 25.2152 7.5 28 7.5C30.7848 7.5 33.4555 8.60625 35.4246 10.5754C37.3938 12.5445 38.5 15.2152 38.5 18C38.5 20.7848 37.3938 23.4555 35.4246 25.4246C33.4555 27.3938 30.7848 28.5 28 28.5ZM28 30C31.1826 30 34.2348 28.7357 36.4853 26.4853C38.7357 24.2348 40 21.1826 40 18C40 14.8174 38.7357 11.7652 36.4853 9.51472C34.2348 7.26428 31.1826 6 28 6C24.8174 6 21.7652 7.26428 19.5147 9.51472C17.2643 11.7652 16 14.8174 16 18C16 21.1826 17.2643 24.2348 19.5147 26.4853C21.7652 28.7357 24.8174 30 28 30Z" fill="#828282"/>
    <path d="M28 12C28.1989 12 28.3897 12.079 28.5303 12.2197C28.671 12.3603 28.75 12.5511 28.75 12.75V17.25H33.25C33.4489 17.25 33.6397 17.329 33.7803 17.4697C33.921 17.6103 34 17.8011 34 18C34 18.1989 33.921 18.3897 33.7803 18.5303C33.6397 18.671 33.4489 18.75 33.25 18.75H28.75V23.25C28.75 23.4489 28.671 23.6397 28.5303 23.7803C28.3897 23.921 28.1989 24 28 24C27.8011 24 27.6103 23.921 27.4697 23.7803C27.329 23.6397 27.25 23.4489 27.25 23.25V18.75H22.75C22.5511 18.75 22.3603 18.671 22.2197 18.5303C22.079 18.3897 22 18.1989 22 18C22 17.8011 22.079 17.6103 22.2197 17.4697C22.3603 17.329 22.5511 17.25 22.75 17.25H27.25V12.75C27.25 12.5511 27.329 12.3603 27.4697 12.2197C27.6103 12.079 27.8011 12 28 12Z" fill="#828282"/>
    <path d="M49.0228 19.432H49.8508C51.8668 19.432 53.1628 19.384 54.6748 19.096L54.7828 19.912C53.2228 20.2 51.9148 20.272 49.8508 20.272H49.0228V19.432ZM49.0228 13.12H53.9548V13.936H50.0068V19.744H49.0228V13.12ZM56.4268 12.088H57.4228V22.96H56.4268V12.088ZM53.3188 16.012H56.8348V16.84H53.3188V16.012ZM59.5219 20.728H69.3499V21.556H59.5219V20.728ZM63.9139 18.136H64.9099V20.968H63.9139V18.136ZM60.6739 12.856H61.6579V14.788H67.1899V12.856H68.1739V18.4H60.6739V12.856ZM61.6579 15.592V17.584H67.1899V15.592H61.6579ZM78.4569 12.088H79.4529V22.936H78.4569V12.088ZM75.2769 13.252H76.2609C76.2609 16.396 74.8449 19.144 71.2209 20.92L70.6929 20.116C73.8249 18.604 75.2769 16.3 75.2769 13.42V13.252ZM71.1849 13.252H75.7089V14.068H71.1849V13.252Z" fill="#828282"/>
</svg>