<svg width="24" height="24" viewBox="0 0 24 24" fill="none" xmlns="http://www.w3.org/2000/svg">
<g clip-path="url(#clip0_124_284)">
<path fill-rule="evenodd" clip-rule="evenodd" d="M10.499 4.50001C9.71121 4.49893 8.93099 4.65357 8.20319 4.95503C7.47538 5.25649 6.81433 5.69883 6.25805 6.25662L6.25733 6.25734C5.17027 7.3444 4.5 8.84286 4.5 10.5L4.5 10.501C4.49893 11.2888 4.65356 12.069 4.95502 12.7968C5.25649 13.5246 5.69883 14.1857 6.25661 14.742L6.25805 14.7434C6.81433 15.3012 7.47538 15.7435 8.20319 16.045C8.93099 16.3464 9.71121 16.5011 10.499 16.5H10.5013C11.5844 16.5019 12.6475 16.2089 13.5767 15.6525L14.3473 16.9395C13.1848 17.6356 11.8547 18.0022 10.4997 18M5.19631 5.19703C5.89211 4.49945 6.7189 3.94625 7.62917 3.56921C8.53944 3.19217 9.51525 2.99873 10.5005 3.00001C12.571 3.00014 14.4462 3.8397 15.803 5.19632C16.5006 5.89211 17.0538 6.7189 17.4308 7.62918C17.8078 8.53928 18.0012 9.51489 18 10.5C18.0017 11.8305 17.6484 13.1375 16.9763 14.2858L16.976 14.2863C16.6118 14.9077 16.6933 15.6327 17.1483 16.0877L21.0013 19.9407L19.9407 21.0013L16.0877 17.1483C15.0968 16.1575 15.0122 14.6707 15.6817 13.5282C16.2191 12.61 16.5015 11.565 16.5 10.5011V10.499C16.5011 9.71121 16.3464 8.931 16.045 8.20319C15.7435 7.47538 15.3012 6.81434 14.7434 6.25805L14.7427 6.25734C13.6556 5.17027 12.1571 4.50001 10.5 4.50001L10.499 4.50001M18 10.5C18 10.5003 18 10.5007 18 10.501L17.25 10.5L18 10.4989C18 10.4993 18 10.4996 18 10.5ZM10.5005 3.00001C10.5007 3.00001 10.5009 3.00001 10.501 3.00001L10.5 3.75001V3.00001C10.5002 3.00001 10.5003 3.00001 10.5005 3.00001ZM3 10.4995C3 10.4997 3 10.4998 3 10.5H3.75L3 10.499C3 10.4992 3 10.4993 3 10.4995Z" fill="#111111"/>
</g>
<defs>
<clipPath id="clip0_124_284">
<rect width="24" height="24" fill="white"/>
</clipPath>
</defs>
</svg>
