<svg width="18" height="18" viewBox="0 0 18 18" fill="none" xmlns="http://www.w3.org/2000/svg">
<path fill-rule="evenodd" clip-rule="evenodd" d="M7.49898 1.50001C6.71121 1.49893 5.93099 1.65357 5.20319 1.95503C4.47538 2.25649 3.81433 2.69883 3.25805 3.25662L3.25733 3.25734C2.17027 4.3444 1.5 5.84286 1.5 7.50001L1.5 7.50103C1.49893 8.2888 1.65356 9.06901 1.95502 9.79682C2.25649 10.5246 2.69883 11.1857 3.25661 11.742L3.25805 11.7434C3.81433 12.3012 4.47538 12.7435 5.20319 13.045C5.93099 13.3464 6.71121 13.5011 7.49898 13.5H7.50131C8.58436 13.5019 9.6475 13.2089 10.5767 12.6525L11.3473 13.9395C10.1848 14.6356 8.8547 15.0022 7.49969 15M2.19631 2.19703C2.89211 1.49945 3.7189 0.946247 4.62917 0.569208C5.53944 0.192169 6.51525 -0.0012698 7.50051 6.27253e-06C9.57098 0.000144496 11.4462 0.839703 12.803 2.19632C13.5006 2.89211 14.0538 3.7189 14.4308 4.62918C14.8078 5.53928 15.0012 6.51489 15 7.49997C15.0017 8.83053 14.6484 10.1375 13.9763 11.2858L13.976 11.2863C13.6118 11.9077 13.6933 12.6327 14.1483 13.0877L18.0013 16.9407L16.9407 18.0013L13.0877 14.1483C12.0968 13.1575 12.0122 11.6707 12.6817 10.5282C13.2191 9.60999 13.5015 8.56498 13.5 7.5011V7.49898C13.5011 6.71121 13.3464 5.931 13.045 5.20319C12.7435 4.47538 12.3012 3.81434 11.7434 3.25805L11.7427 3.25734C10.6556 2.17027 9.15715 1.50001 7.5 1.50001L7.49898 1.50001M15 7.49997C15 7.50032 15 7.50068 15 7.50103L14.25 7.50001L15 7.49892C15 7.49927 15 7.49962 15 7.49997ZM7.50051 6.27253e-06C7.50068 6.51095e-06 7.50085 6.68977e-06 7.50102 6.92819e-06L7.5 0.750006V6.21293e-06C7.50017 6.21293e-06 7.50034 6.27253e-06 7.50051 6.27253e-06ZM0 7.4995C0 7.49967 0 7.49984 0 7.50001H0.75L7.15256e-07 7.49898C4.76837e-07 7.49915 2.38419e-07 7.49932 0 7.4995Z" fill="#111111"/>
</svg>
